# xmcd
#
# Track frame offsets:
#	150
#	14658
#	30180
#	46944
#	65426
#	81303
#	93964
#	108522
#	123848
#	136481
#	152614
#	170511
#
# Disc length: 2453 seconds
# Revision: 0
# Processed by: cddbd v1.5.2PL0 Copyright (c) Steve Scherf et al.
# Submitted via: dBpowerAMP V12.0
#
DISCID=9209930c
DTITLE=Joe Mullins and the Radio Ramblers - For the Record
DYEAR=2019
DGENRE=Bluegrass
TTITLE0=That Old Wheel
TTITLE1=The Guitar Song
TTITLE2=A Folded Flag
TTITLE3=Tell Me True
TTITLE4=Here and Now
TTITLE5=Things That I Like
TTITLE6=Acres of Diamonds
TTITLE7=O-hio
TTITLE8=Dreamers Hill
TTITLE9=Bacon in My Beans
TTITLE10=I Want to Know More About My Lord
TTITLE11=Georgia Slammer
EXTD=
EXTT0=
EXTT1=
EXTT2=
EXTT3=
EXTT4=
EXTT5=
EXTT6=
EXTT7=
EXTT8=
EXTT9=
EXTT10=
EXTT11=
PLAYORDER=
